<?xml version="1.0" encoding="UTF-8"?>
<svg width="1600px" height="300px" viewBox="0 0 1600 300" version="1.1" xmlns="http://www.w3.org/2000/svg" xmlns:xlink="http://www.w3.org/1999/xlink" style="background: #FFFFFF;">
    <!-- Generator: Sketch 42 (36781) - http://www.bohemiancoding.com/sketch -->
    <title>twitter-launch-animation_baner - outline</title>
    <desc>Created with Sketch.</desc>
    <defs></defs>
    <g id="Page-1" stroke="none" stroke-width="1" fill="none" fill-rule="evenodd">
        <g id="twitter-launch-animation_baner---outline">
            <g id="Group-4" transform="translate(512.000000, 103.000000)">
                <g id="Group-3">
                    <path d="M586.465,107 L592.24,88.905 L589.16,88.905 L585.1,103.71 L585.03,103.71 L581.25,88.905 L577.995,88.905 L574.355,103.71 L574.285,103.71 L570.19,88.905 L566.9,88.905 L572.71,107 L575.93,107 L579.57,92.615 L579.64,92.615 L583.315,107 L586.465,107 Z M600.225,85.65 L600.225,82.01 L597.25,82.01 L597.25,85.65 L600.225,85.65 Z M597.25,88.905 L597.25,107 L600.225,107 L600.225,88.905 L597.25,88.905 Z M610.975,88.905 L610.975,83.48 L608,83.48 L608,88.905 L604.92,88.905 L604.92,91.53 L608,91.53 L608,103.045 C608,103.885004 608.081666,104.561664 608.245,105.075 C608.408334,105.588336 608.659165,105.984999 608.9975,106.265 C609.335835,106.545001 609.779164,106.737499 610.3275,106.8425 C610.875836,106.947501 611.534996,107 612.305,107 L614.58,107 L614.58,104.375 L613.215,104.375 C612.748331,104.375 612.369168,104.3575 612.0775,104.3225 C611.785832,104.2875 611.558334,104.211667 611.395,104.095 C611.231666,103.978333 611.120834,103.815001 611.0625,103.605 C611.004166,103.394999 610.975,103.115002 610.975,102.765 L610.975,91.53 L614.58,91.53 L614.58,88.905 L610.975,88.905 Z M619.87,82.01 L619.87,107 L622.845,107 L622.845,96.78 C622.845,95.9633293 622.955832,95.2108368 623.1775,94.5225 C623.399168,93.8341632 623.731664,93.2333359 624.175,92.72 C624.618336,92.2066641 625.172497,91.8100014 625.8375,91.53 C626.502503,91.2499986 627.289995,91.11 628.2,91.11 C629.343339,91.11 630.241663,91.4366634 630.895,92.09 C631.548337,92.7433366 631.875,93.6299944 631.875,94.75 L631.875,107 L634.85,107 L634.85,95.1 C634.85,94.1199951 634.750834,93.227504 634.5525,92.4225 C634.354166,91.617496 634.010002,90.9233363 633.52,90.34 C633.029998,89.7566638 632.388337,89.3016683 631.595,88.975 C630.801663,88.6483317 629.810006,88.485 628.62,88.485 C628.083331,88.485 627.52917,88.5433327 626.9575,88.66 C626.38583,88.7766673 625.837503,88.9574988 625.3125,89.2025 C624.787497,89.4475012 624.315002,89.7624981 623.895,90.1475 C623.474998,90.5325019 623.148335,91.0049972 622.915,91.565 L622.845,91.565 L622.845,82.01 L619.87,82.01 Z M665.345,94.715 L668.425,94.715 C668.308333,93.6416613 668.028336,92.7141706 667.585,91.9325 C667.141664,91.1508294 666.575837,90.5033359 665.8875,89.99 C665.199163,89.4766641 664.405838,89.0975012 663.5075,88.8525 C662.609162,88.6074988 661.646672,88.485 660.62,88.485 C659.19666,88.485 657.948339,88.7358308 656.875,89.2375 C655.801661,89.7391692 654.90917,90.4274956 654.1975,91.3025 C653.48583,92.1775044 652.955002,93.2041608 652.605,94.3825 C652.254998,95.5608392 652.08,96.8266599 652.08,98.18 C652.08,99.5333401 652.260832,100.775828 652.6225,101.9075 C652.984168,103.039172 653.52083,104.013329 654.2325,104.83 C654.94417,105.646671 655.830828,106.276664 656.8925,106.72 C657.954172,107.163336 659.173326,107.385 660.55,107.385 C662.860012,107.385 664.685827,106.778339 666.0275,105.565 C667.369173,104.351661 668.203332,102.625011 668.53,100.385 L665.485,100.385 C665.298332,101.785007 664.790837,102.869996 663.9625,103.64 C663.134163,104.410004 661.985007,104.795 660.515,104.795 C659.581662,104.795 658.77667,104.608335 658.1,104.235 C657.42333,103.861665 656.875002,103.365836 656.455,102.7475 C656.034998,102.129164 655.725834,101.423337 655.5275,100.63 C655.329166,99.8366627 655.23,99.0200042 655.23,98.18 C655.23,97.2699954 655.323332,96.3891709 655.51,95.5375 C655.696668,94.6858291 656.005831,93.9333366 656.4375,93.28 C656.869169,92.6266634 657.446663,92.1016686 658.17,91.705 C658.893337,91.3083314 659.791661,91.11 660.865,91.11 C662.125006,91.11 663.12833,91.4249968 663.875,92.055 C664.62167,92.6850032 665.111666,93.5716609 665.345,94.715 Z M688.835,107 L688.835,88.905 L685.86,88.905 L685.86,99.125 C685.86,99.9416708 685.749168,100.694163 685.5275,101.3825 C685.305832,102.070837 684.973336,102.671664 684.53,103.185 C684.086664,103.698336 683.532503,104.094999 682.8675,104.375 C682.202497,104.655001 681.415005,104.795 680.505,104.795 C679.361661,104.795 678.463337,104.468337 677.81,103.815 C677.156663,103.161663 676.83,102.275006 676.83,101.155 L676.83,88.905 L673.855,88.905 L673.855,100.805 C673.855,101.785005 673.954166,102.677496 674.1525,103.4825 C674.350834,104.287504 674.694998,104.981664 675.185,105.565 C675.675002,106.148336 676.316663,106.597498 677.11,106.9125 C677.903337,107.227502 678.894994,107.385 680.085,107.385 C681.415007,107.385 682.569995,107.122503 683.55,106.5975 C684.530005,106.072497 685.334997,105.250006 685.965,104.13 L686.035,104.13 L686.035,107 L688.835,107 Z M697.135,101.295 L694.16,101.295 C694.206667,102.415006 694.439998,103.365829 694.86,104.1475 C695.280002,104.929171 695.839997,105.559164 696.54,106.0375 C697.240004,106.515836 698.044995,106.859999 698.955,107.07 C699.865005,107.280001 700.821662,107.385 701.825,107.385 C702.735005,107.385 703.650829,107.297501 704.5725,107.1225 C705.494171,106.947499 706.322496,106.638336 707.0575,106.195 C707.792504,105.751664 708.387498,105.168337 708.8425,104.445 C709.297502,103.721663 709.525,102.811672 709.525,101.715 C709.525,100.851662 709.355835,100.128336 709.0175,99.545 C708.679165,98.9616637 708.235836,98.4775019 707.6875,98.0925 C707.139164,97.7074981 706.50917,97.3983345 705.7975,97.165 C705.08583,96.9316655 704.35667,96.7333341 703.61,96.57 C702.909997,96.4066658 702.210004,96.2491674 701.51,96.0975 C700.809997,95.9458326 700.180003,95.7591678 699.62,95.5375 C699.059997,95.3158322 698.599168,95.035835 698.2375,94.6975 C697.875832,94.359165 697.695,93.9333359 697.695,93.42 C697.695,92.953331 697.811666,92.5741681 698.045,92.2825 C698.278335,91.9908319 698.581665,91.7575009 698.955,91.5825 C699.328335,91.4074991 699.742498,91.2850003 700.1975,91.215 C700.652502,91.1449997 701.101664,91.11 701.545,91.11 C702.035002,91.11 702.519164,91.1624995 702.9975,91.2675 C703.475836,91.3725005 703.913331,91.5416655 704.31,91.775 C704.706669,92.0083345 705.033332,92.3174981 705.29,92.7025 C705.546668,93.0875019 705.698333,93.5716637 705.745,94.155 L708.72,94.155 C708.65,93.0583278 708.416669,92.1425037 708.02,91.4075 C707.623331,90.6724963 707.092503,90.0891688 706.4275,89.6575 C705.762497,89.2258312 704.998338,88.9225009 704.135,88.7475 C703.271662,88.5724991 702.326672,88.485 701.3,88.485 C700.506663,88.485 699.707504,88.5841657 698.9025,88.7825 C698.097496,88.9808343 697.37417,89.2841646 696.7325,89.6925 C696.09083,90.1008354 695.565835,90.6316634 695.1575,91.285 C694.749165,91.9383366 694.545,92.7199954 694.545,93.63 C694.545,94.7966725 694.836664,95.7066634 695.42,96.36 C696.003336,97.0133366 696.732496,97.5208315 697.6075,97.8825 C698.482504,98.2441685 699.433328,98.5241657 700.46,98.7225 C701.486672,98.9208343 702.437496,99.1424988 703.3125,99.3875 C704.187504,99.6325012 704.916664,99.9533313 705.5,100.35 C706.083336,100.746669 706.375,101.329996 706.375,102.1 C706.375,102.660003 706.235001,103.120832 705.955,103.4825 C705.674999,103.844168 705.319169,104.118332 704.8875,104.305 C704.455831,104.491668 703.983336,104.62 703.47,104.69 C702.956664,104.76 702.466669,104.795 702,104.795 C701.39333,104.795 700.80417,104.736667 700.2325,104.62 C699.66083,104.503333 699.147502,104.310835 698.6925,104.0425 C698.237498,103.774165 697.870001,103.412502 697.59,102.9575 C697.309999,102.502498 697.158333,101.948337 697.135,101.295 Z M718.945,88.905 L718.945,83.48 L715.97,83.48 L715.97,88.905 L712.89,88.905 L712.89,91.53 L715.97,91.53 L715.97,103.045 C715.97,103.885004 716.051666,104.561664 716.215,105.075 C716.378334,105.588336 716.629165,105.984999 716.9675,106.265 C717.305835,106.545001 717.749164,106.737499 718.2975,106.8425 C718.845836,106.947501 719.504996,107 720.275,107 L722.55,107 L722.55,104.375 L721.185,104.375 C720.718331,104.375 720.339168,104.3575 720.0475,104.3225 C719.755832,104.2875 719.528334,104.211667 719.365,104.095 C719.201666,103.978333 719.090834,103.815001 719.0325,103.605 C718.974166,103.394999 718.945,103.115002 718.945,102.765 L718.945,91.53 L722.55,91.53 L722.55,88.905 L718.945,88.905 Z M730.01,97.97 C730.01,99.0666722 730.155832,100.040829 730.4475,100.8925 C730.739168,101.744171 731.141664,102.45583 731.655,103.0275 C732.168336,103.59917 732.769163,104.036665 733.4575,104.34 C734.145837,104.643335 734.874996,104.795 735.645,104.795 C736.415004,104.795 737.144163,104.643335 737.8325,104.34 C738.520837,104.036665 739.121664,103.59917 739.635,103.0275 C740.148336,102.45583 740.550832,101.744171 740.8425,100.8925 C741.134168,100.040829 741.28,99.0666722 741.28,97.97 C741.28,96.8733278 741.134168,95.8991709 740.8425,95.0475 C740.550832,94.1958291 740.148336,93.4783362 739.635,92.895 C739.121664,92.3116637 738.520837,91.8683348 737.8325,91.565 C737.144163,91.2616651 736.415004,91.11 735.645,91.11 C734.874996,91.11 734.145837,91.2616651 733.4575,91.565 C732.769163,91.8683348 732.168336,92.3116637 731.655,92.895 C731.141664,93.4783362 730.739168,94.1958291 730.4475,95.0475 C730.155832,95.8991709 730.01,96.8733278 730.01,97.97 Z M726.86,97.97 C726.86,96.6399933 727.046665,95.3975058 727.42,94.2425 C727.793335,93.0874942 728.35333,92.0841709 729.1,91.2325 C729.84667,90.3808291 730.768328,89.7100024 731.865,89.22 C732.961672,88.7299976 734.22166,88.485 735.645,88.485 C737.091674,88.485 738.357495,88.7299976 739.4425,89.22 C740.527505,89.7100024 741.44333,90.3808291 742.19,91.2325 C742.93667,92.0841709 743.496665,93.0874942 743.87,94.2425 C744.243335,95.3975058 744.43,96.6399933 744.43,97.97 C744.43,99.3000067 744.243335,100.536661 743.87,101.68 C743.496665,102.823339 742.93667,103.820829 742.19,104.6725 C741.44333,105.524171 740.527505,106.189164 739.4425,106.6675 C738.357495,107.145836 737.091674,107.385 735.645,107.385 C734.22166,107.385 732.961672,107.145836 731.865,106.6675 C730.768328,106.189164 729.84667,105.524171 729.1,104.6725 C728.35333,103.820829 727.793335,102.823339 727.42,101.68 C727.046665,100.536661 726.86,99.3000067 726.86,97.97 Z M749.93,88.905 L749.93,107 L752.905,107 L752.905,95.73 C752.905,95.3799982 752.992499,94.9425026 753.1675,94.4175 C753.342501,93.8924974 753.622498,93.3850025 754.0075,92.895 C754.392502,92.4049975 754.894164,91.9850017 755.5125,91.635 C756.130836,91.2849983 756.871662,91.11 757.735,91.11 C758.41167,91.11 758.965831,91.2091657 759.3975,91.4075 C759.829169,91.6058343 760.173332,91.8858315 760.43,92.2475 C760.686668,92.6091685 760.867499,93.0349975 760.9725,93.525 C761.077501,94.0150024 761.13,94.5516637 761.13,95.135 L761.13,107 L764.105,107 L764.105,95.73 C764.105,94.329993 764.524996,93.2100042 765.365,92.37 C766.205004,91.5299958 767.359993,91.11 768.83,91.11 C769.553337,91.11 770.142498,91.2149989 770.5975,91.425 C771.052502,91.635001 771.408332,91.9208315 771.665,92.2825 C771.921668,92.6441685 772.096666,93.0699975 772.19,93.56 C772.283334,94.0500024 772.33,94.5749972 772.33,95.135 L772.33,107 L775.305,107 L775.305,93.735 C775.305,92.801662 775.159168,92.0025033 774.8675,91.3375 C774.575832,90.6724967 774.167503,90.1300021 773.6425,89.71 C773.117497,89.2899979 772.487504,88.9808343 771.7525,88.7825 C771.017496,88.5841657 770.195005,88.485 769.285,88.485 C768.094994,88.485 767.004172,88.7533306 766.0125,89.29 C765.020828,89.8266694 764.22167,90.5849951 763.615,91.565 C763.241665,90.4449944 762.600005,89.651669 761.69,89.185 C760.779995,88.718331 759.765006,88.485 758.645,88.485 C756.101654,88.485 754.15334,89.5116564 752.8,91.565 L752.73,91.565 L752.73,88.905 L749.93,88.905 Z M784.935,85.65 L784.935,82.01 L781.96,82.01 L781.96,85.65 L784.935,85.65 Z M781.96,88.905 L781.96,107 L784.935,107 L784.935,88.905 L781.96,88.905 Z M790.085,104.725 L790.085,107 L805.345,107 L805.345,104.375 L793.795,104.375 L804.855,90.935 L804.855,88.905 L790.785,88.905 L790.785,91.53 L801.005,91.53 L790.085,104.725 Z M826.385,106.93 C825.871664,107.233335 825.160005,107.385 824.25,107.385 C823.479996,107.385 822.867502,107.169169 822.4125,106.7375 C821.957498,106.305831 821.73,105.600005 821.73,104.62 C820.913329,105.600005 819.962505,106.305831 818.8775,106.7375 C817.792495,107.169169 816.620006,107.385 815.36,107.385 C814.543329,107.385 813.767504,107.291668 813.0325,107.105 C812.297496,106.918332 811.661669,106.626669 811.125,106.23 C810.588331,105.833331 810.162502,105.31417 809.8475,104.6725 C809.532498,104.03083 809.375,103.255005 809.375,102.345 C809.375,101.318328 809.549998,100.478337 809.9,99.825 C810.250002,99.1716634 810.71083,98.6408354 811.2825,98.2325 C811.85417,97.8241646 812.507496,97.515001 813.2425,97.305 C813.977504,97.0949989 814.729996,96.9200007 815.5,96.78 C816.316671,96.6166659 817.092496,96.4941671 817.8275,96.4125 C818.562504,96.3308329 819.209997,96.2141674 819.77,96.0625 C820.330003,95.9108326 820.773332,95.6891681 821.1,95.3975 C821.426668,95.1058319 821.59,94.6800028 821.59,94.12 C821.59,93.4666634 821.467501,92.9416686 821.2225,92.545 C820.977499,92.1483314 820.662502,91.8450011 820.2775,91.635 C819.892498,91.424999 819.460836,91.2850003 818.9825,91.215 C818.504164,91.1449997 818.031669,91.11 817.565,91.11 C816.304994,91.11 815.255004,91.3491643 814.415,91.8275 C813.574996,92.3058357 813.12,93.2099933 813.05,94.54 L810.075,94.54 C810.121667,93.4199944 810.354998,92.4750039 810.775,91.705 C811.195002,90.9349961 811.754997,90.3108357 812.455,89.8325 C813.155004,89.3541643 813.954162,89.010001 814.8525,88.8 C815.750838,88.5899989 816.713328,88.485 817.74,88.485 C818.556671,88.485 819.367496,88.5433327 820.1725,88.66 C820.977504,88.7766673 821.706663,89.0158315 822.36,89.3775 C823.013337,89.7391685 823.538331,90.2466634 823.935,90.9 C824.331669,91.5533366 824.53,92.4049948 824.53,93.455 L824.53,102.765 C824.53,103.465003 824.570833,103.978332 824.6525,104.305 C824.734167,104.631668 825.008331,104.795 825.475,104.795 C825.731668,104.795 826.034998,104.736667 826.385,104.62 L826.385,106.93 Z M821.555,97.655 C821.181665,97.9350014 820.69167,98.139166 820.085,98.2675 C819.47833,98.395834 818.842503,98.5008329 818.1775,98.5825 C817.512497,98.6641671 816.84167,98.7574995 816.165,98.8625 C815.48833,98.9675005 814.881669,99.1366655 814.345,99.37 C813.808331,99.6033345 813.370835,99.9358312 813.0325,100.3675 C812.694165,100.799169 812.525,101.38833 812.525,102.135 C812.525,102.625002 812.624166,103.039165 812.8225,103.3775 C813.020834,103.715835 813.277498,103.989999 813.5925,104.2 C813.907502,104.410001 814.274998,104.561666 814.695,104.655 C815.115002,104.748334 815.558331,104.795 816.025,104.795 C817.005005,104.795 817.844997,104.660835 818.545,104.3925 C819.245004,104.124165 819.816664,103.785835 820.26,103.3775 C820.703336,102.969165 821.029999,102.525836 821.24,102.0475 C821.450001,101.569164 821.555,101.120002 821.555,100.7 L821.555,97.655 Z M831.255,82.01 L834.23,82.01 L834.23,91.355 L834.3,91.355 C834.790002,90.3516616 835.559995,89.6225023 836.61,89.1675 C837.660005,88.7124977 838.814994,88.485 840.075,88.485 C841.475007,88.485 842.694161,88.7416641 843.7325,89.255 C844.770839,89.7683359 845.634163,90.4624956 846.3225,91.3375 C847.010837,92.2125044 847.529998,93.221661 847.88,94.365 C848.230002,95.508339 848.405,96.7216602 848.405,98.005 C848.405,99.2883398 848.235835,100.501661 847.8975,101.645 C847.559165,102.788339 847.045837,103.785829 846.3575,104.6375 C845.669163,105.489171 844.805839,106.159998 843.7675,106.65 C842.729161,107.140002 841.521674,107.385 840.145,107.385 C839.701664,107.385 839.205836,107.338334 838.6575,107.245 C838.109164,107.151666 837.566669,107.000001 837.03,106.79 C836.493331,106.579999 835.985836,106.294168 835.5075,105.9325 C835.029164,105.570832 834.626668,105.121669 834.3,104.585 L834.23,104.585 L834.23,107 L831.255,107 L831.255,82.01 Z M845.255,97.795 C845.255,96.9549958 845.144168,96.132504 844.9225,95.3275 C844.700832,94.522496 844.362502,93.8050032 843.9075,93.175 C843.452498,92.5449968 842.86917,92.0433352 842.1575,91.67 C841.44583,91.2966648 840.611671,91.11 839.655,91.11 C838.651662,91.11 837.800004,91.3083314 837.1,91.705 C836.399997,92.1016686 835.828336,92.6208301 835.385,93.2625 C834.941664,93.9041699 834.620834,94.6333293 834.4225,95.45 C834.224166,96.2666708 834.125,97.0949958 834.125,97.935 C834.125,98.8216711 834.229999,99.6791625 834.44,100.5075 C834.650001,101.335837 834.982498,102.064997 835.4375,102.695 C835.892502,103.325003 836.481663,103.832498 837.205,104.2175 C837.928337,104.602502 838.803328,104.795 839.83,104.795 C840.856672,104.795 841.714163,104.596669 842.4025,104.2 C843.090837,103.803331 843.644998,103.278337 844.065,102.625 C844.485002,101.971663 844.788332,101.225004 844.975,100.385 C845.161668,99.5449958 845.255,98.6816711 845.255,97.795 Z M854.08,82.01 L854.08,107 L857.055,107 L857.055,82.01 L854.08,82.01 Z M876.24,96.22 C876.193333,95.5199965 876.035835,94.8550032 875.7675,94.225 C875.499165,93.5949969 875.137502,93.0525023 874.6825,92.5975 C874.227498,92.1424977 873.690836,91.7808347 873.0725,91.5125 C872.454164,91.2441653 871.77167,91.11 871.025,91.11 C870.254996,91.11 869.560836,91.2441653 868.9425,91.5125 C868.324164,91.7808347 867.793336,92.148331 867.35,92.615 C866.906664,93.081669 866.556668,93.6241636 866.3,94.2425 C866.043332,94.8608364 865.891667,95.5199965 865.845,96.22 L876.24,96.22 Z M879.11,101.26 C878.713331,103.29001 877.83834,104.818328 876.485,105.845 C875.13166,106.871672 873.428344,107.385 871.375,107.385 C869.928326,107.385 868.674172,107.151669 867.6125,106.685 C866.550828,106.218331 865.658337,105.565004 864.935,104.725 C864.211663,103.884996 863.669168,102.881673 863.3075,101.715 C862.945832,100.548327 862.741667,99.2766735 862.695,97.9 C862.695,96.5233264 862.904998,95.263339 863.325,94.12 C863.745002,92.9766609 864.334163,91.9850042 865.0925,91.145 C865.850837,90.3049958 866.749161,89.651669 867.7875,89.185 C868.825839,88.718331 869.963327,88.485 871.2,88.485 C872.810008,88.485 874.145828,88.8174967 875.2075,89.4825 C876.269172,90.1475033 877.12083,90.9933282 877.7625,92.02 C878.40417,93.0466718 878.847499,94.1666606 879.0925,95.38 C879.337501,96.5933394 879.436667,97.7483278 879.39,98.845 L865.845,98.845 C865.821667,99.6383373 865.914999,100.39083 866.125,101.1025 C866.335001,101.81417 866.673331,102.444164 867.14,102.9925 C867.606669,103.540836 868.201663,103.978332 868.925,104.305 C869.648337,104.631668 870.499995,104.795 871.48,104.795 C872.740006,104.795 873.772496,104.503336 874.5775,103.92 C875.382504,103.336664 875.913332,102.450006 876.17,101.26 L879.11,101.26 Z M896.375,82.01 L896.375,107 L899.35,107 L899.35,82.01 L896.375,82.01 Z M908.14,97.97 C908.14,99.0666722 908.285832,100.040829 908.5775,100.8925 C908.869168,101.744171 909.271664,102.45583 909.785,103.0275 C910.298336,103.59917 910.899163,104.036665 911.5875,104.34 C912.275837,104.643335 913.004996,104.795 913.775,104.795 C914.545004,104.795 915.274163,104.643335 915.9625,104.34 C916.650837,104.036665 917.251664,103.59917 917.765,103.0275 C918.278336,102.45583 918.680832,101.744171 918.9725,100.8925 C919.264168,100.040829 919.41,99.0666722 919.41,97.97 C919.41,96.8733278 919.264168,95.8991709 918.9725,95.0475 C918.680832,94.1958291 918.278336,93.4783362 917.765,92.895 C917.251664,92.3116637 916.650837,91.8683348 915.9625,91.565 C915.274163,91.2616651 914.545004,91.11 913.775,91.11 C913.004996,91.11 912.275837,91.2616651 911.5875,91.565 C910.899163,91.8683348 910.298336,92.3116637 909.785,92.895 C909.271664,93.4783362 908.869168,94.1958291 908.5775,95.0475 C908.285832,95.8991709 908.14,96.8733278 908.14,97.97 Z M904.99,97.97 C904.99,96.6399933 905.176665,95.3975058 905.55,94.2425 C905.923335,93.0874942 906.48333,92.0841709 907.23,91.2325 C907.97667,90.3808291 908.898328,89.7100024 909.995,89.22 C911.091672,88.7299976 912.35166,88.485 913.775,88.485 C915.221674,88.485 916.487495,88.7299976 917.5725,89.22 C918.657505,89.7100024 919.57333,90.3808291 920.32,91.2325 C921.06667,92.0841709 921.626665,93.0874942 922,94.2425 C922.373335,95.3975058 922.56,96.6399933 922.56,97.97 C922.56,99.3000067 922.373335,100.536661 922,101.68 C921.626665,102.823339 921.06667,103.820829 920.32,104.6725 C919.57333,105.524171 918.657505,106.189164 917.5725,106.6675 C916.487495,107.145836 915.221674,107.385 913.775,107.385 C912.35166,107.385 911.091672,107.145836 909.995,106.6675 C908.898328,106.189164 907.97667,105.524171 907.23,104.6725 C906.48333,103.820829 905.923335,102.823339 905.55,101.68 C905.176665,100.536661 904.99,99.3000067 904.99,97.97 Z M943.67,105.46 C943.67,108.423348 942.99334,110.639993 941.64,112.11 C940.28666,113.580007 938.163348,114.315 935.27,114.315 C934.429996,114.315 933.572504,114.221668 932.6975,114.035 C931.822496,113.848332 931.02917,113.545002 930.3175,113.125 C929.60583,112.704998 929.016669,112.15667 928.55,111.48 C928.083331,110.80333 927.826667,109.975005 927.78,108.995 L930.755,108.995 C930.778333,109.531669 930.947498,109.986665 931.2625,110.36 C931.577502,110.733335 931.962498,111.036665 932.4175,111.27 C932.872502,111.503334 933.368331,111.672499 933.905,111.7775 C934.441669,111.882501 934.954998,111.935 935.445,111.935 C936.425005,111.935 937.25333,111.765835 937.93,111.4275 C938.60667,111.089165 939.166664,110.622503 939.61,110.0275 C940.053336,109.432497 940.374166,108.715004 940.5725,107.875 C940.770834,107.034996 940.87,106.113338 940.87,105.11 L940.87,103.92 L940.8,103.92 C940.286664,105.040006 939.510839,105.862497 938.4725,106.3875 C937.434161,106.912503 936.331673,107.175 935.165,107.175 C933.81166,107.175 932.633338,106.930002 931.63,106.44 C930.626662,105.949998 929.78667,105.290837 929.11,104.4625 C928.43333,103.634163 927.925835,102.665839 927.5875,101.5575 C927.249165,100.449161 927.08,99.2766728 927.08,98.04 C927.08,96.9666613 927.219999,95.8641723 927.5,94.7325 C927.780001,93.6008277 928.246663,92.5741713 928.9,91.6525 C929.553337,90.7308287 930.416661,89.972503 931.49,89.3775 C932.563339,88.782497 933.881659,88.485 935.445,88.485 C936.588339,88.485 937.638329,88.7358308 938.595,89.2375 C939.551671,89.7391692 940.298331,90.4916616 940.835,91.495 L940.87,91.495 L940.87,88.905 L943.67,88.905 L943.67,105.46 Z M935.34,104.585 C936.320005,104.585 937.154163,104.380835 937.8425,103.9725 C938.530837,103.564165 939.084998,103.027503 939.505,102.3625 C939.925002,101.697497 940.234166,100.945004 940.4325,100.105 C940.630834,99.2649958 940.73,98.4250042 940.73,97.585 C940.73,96.7916627 940.636668,96.0100039 940.45,95.24 C940.263332,94.4699962 939.965835,93.7758364 939.5575,93.1575 C939.149165,92.5391636 938.618337,92.0433352 937.965,91.67 C937.311663,91.2966648 936.518338,91.11 935.585,91.11 C934.628329,91.11 933.81167,91.2908315 933.135,91.6525 C932.45833,92.0141685 931.904169,92.4983303 931.4725,93.105 C931.040831,93.7116697 930.725834,94.4116627 930.5275,95.205 C930.329166,95.9983373 930.23,96.8266623 930.23,97.69 C930.23,98.5066707 930.311666,99.3233293 930.475,100.14 C930.638334,100.956671 930.918331,101.697497 931.315,102.3625 C931.711669,103.027503 932.236663,103.564165 932.89,103.9725 C933.543337,104.380835 934.359995,104.585 935.34,104.585 Z M952.32,97.97 C952.32,99.0666722 952.465832,100.040829 952.7575,100.8925 C953.049168,101.744171 953.451664,102.45583 953.965,103.0275 C954.478336,103.59917 955.079163,104.036665 955.7675,104.34 C956.455837,104.643335 957.184996,104.795 957.955,104.795 C958.725004,104.795 959.454163,104.643335 960.1425,104.34 C960.830837,104.036665 961.431664,103.59917 961.945,103.0275 C962.458336,102.45583 962.860832,101.744171 963.1525,100.8925 C963.444168,100.040829 963.59,99.0666722 963.59,97.97 C963.59,96.8733278 963.444168,95.8991709 963.1525,95.0475 C962.860832,94.1958291 962.458336,93.4783362 961.945,92.895 C961.431664,92.3116637 960.830837,91.8683348 960.1425,91.565 C959.454163,91.2616651 958.725004,91.11 957.955,91.11 C957.184996,91.11 956.455837,91.2616651 955.7675,91.565 C955.079163,91.8683348 954.478336,92.3116637 953.965,92.895 C953.451664,93.4783362 953.049168,94.1958291 952.7575,95.0475 C952.465832,95.8991709 952.32,96.8733278 952.32,97.97 Z M949.17,97.97 C949.17,96.6399933 949.356665,95.3975058 949.73,94.2425 C950.103335,93.0874942 950.66333,92.0841709 951.41,91.2325 C952.15667,90.3808291 953.078328,89.7100024 954.175,89.22 C955.271672,88.7299976 956.53166,88.485 957.955,88.485 C959.401674,88.485 960.667495,88.7299976 961.7525,89.22 C962.837505,89.7100024 963.75333,90.3808291 964.5,91.2325 C965.24667,92.0841709 965.806665,93.0874942 966.18,94.2425 C966.553335,95.3975058 966.74,96.6399933 966.74,97.97 C966.74,99.3000067 966.553335,100.536661 966.18,101.68 C965.806665,102.823339 965.24667,103.820829 964.5,104.6725 C963.75333,105.524171 962.837505,106.189164 961.7525,106.6675 C960.667495,107.145836 959.401674,107.385 957.955,107.385 C956.53166,107.385 955.271672,107.145836 954.175,106.6675 C953.078328,106.189164 952.15667,105.524171 951.41,104.6725 C950.66333,103.820829 950.103335,102.823339 949.73,101.68 C949.356665,100.536661 949.17,99.3000067 949.17,97.97 Z" id="with-customizable-lo" fill="#657786"></path>
                    <path d="M16.933,11.022 L16.933,57 L29.336,57 L29.336,11.022 L46.242,11.022 L46.242,0.594 L0.027,0.594 L0.027,11.022 L16.933,11.022 Z M98.224,57 L111.101,16.157 L99.567,16.157 L92.062,43.807 L91.904,43.807 L84.952,16.157 L74.05,16.157 L67.256,43.886 L67.098,43.886 L59.593,16.157 L47.743,16.157 L60.699,57 L72.312,57 L79.264,29.587 L79.422,29.587 L86.69,57 L98.224,57 Z M127.375,9.837 L127.375,0.594 L116.157,0.594 L116.157,9.837 L127.375,9.837 Z M116.157,16.157 L116.157,57 L127.375,57 L127.375,16.157 L116.157,16.157 Z M150.443,16.157 L150.443,3.912 L139.225,3.912 L139.225,16.157 L132.431,16.157 L132.431,23.662 L139.225,23.662 L139.225,47.757 C139.225,49.8110103 139.56733,51.4699937 140.252,52.734 C140.93667,53.9980063 141.871494,54.9723299 143.0565,55.657 C144.241506,56.3416701 145.610826,56.8024988 147.1645,57.0395 C148.718174,57.2765012 150.363991,57.395 152.102,57.395 C153.208006,57.395 154.340328,57.3686669 155.499,57.316 C156.657672,57.2633331 157.710995,57.1580008 158.659,57 L158.659,48.31 C158.132331,48.4153339 157.579336,48.4943331 157,48.547 C156.420664,48.5996669 155.815003,48.626 155.183,48.626 C153.286991,48.626 152.023003,48.3100032 151.391,47.678 C150.758997,47.0459968 150.443,45.7820095 150.443,43.886 L150.443,23.662 L158.659,23.662 L158.659,16.157 L150.443,16.157 Z M178.251,16.157 L178.251,3.912 L167.033,3.912 L167.033,16.157 L160.239,16.157 L160.239,23.662 L167.033,23.662 L167.033,47.757 C167.033,49.8110103 167.37533,51.4699937 168.06,52.734 C168.74467,53.9980063 169.679494,54.9723299 170.8645,55.657 C172.049506,56.3416701 173.418826,56.8024988 174.9725,57.0395 C176.526174,57.2765012 178.171991,57.395 179.91,57.395 C181.016006,57.395 182.148328,57.3686669 183.307,57.316 C184.465672,57.2633331 185.518995,57.1580008 186.467,57 L186.467,48.31 C185.940331,48.4153339 185.387336,48.4943331 184.808,48.547 C184.228664,48.5996669 183.623003,48.626 182.991,48.626 C181.094991,48.626 179.831003,48.3100032 179.199,47.678 C178.566997,47.0459968 178.251,45.7820095 178.251,43.886 L178.251,23.662 L186.467,23.662 L186.467,16.157 L178.251,16.157 Z M219.331,32.194 C218.804331,29.3499858 217.869507,27.190674 216.5265,25.716 C215.183493,24.241326 213.14268,23.504 210.404,23.504 C208.613324,23.504 207.125506,23.8068303 205.9405,24.4125 C204.755494,25.0181697 203.807504,25.7686622 203.0965,26.664 C202.385496,27.5593378 201.885168,28.5073283 201.5955,29.508 C201.305832,30.5086717 201.134667,31.4039961 201.082,32.194 L219.331,32.194 Z M201.082,39.304 C201.240001,42.9380182 202.161658,45.5713252 203.847,47.204 C205.532342,48.8366748 207.954984,49.653 211.115,49.653 C213.379678,49.653 215.328325,49.086839 216.961,47.9545 C218.593675,46.822161 219.594331,45.6240063 219.963,44.36 L229.838,44.36 C228.257992,49.2580245 225.83535,52.7603228 222.57,54.867 C219.30465,56.9736772 215.35469,58.027 210.72,58.027 C207.507317,58.027 204.61068,57.5135051 202.03,56.4865 C199.44932,55.4594949 197.263676,53.9980095 195.473,52.102 C193.682324,50.2059905 192.299838,47.9413465 191.3255,45.308 C190.351162,42.6746535 189.864,39.7780158 189.864,36.618 C189.864,33.5633181 190.364328,30.7193465 191.365,28.086 C192.365672,25.4526535 193.787657,23.1748429 195.631,21.2525 C197.474343,19.3301571 199.673154,17.8160055 202.2275,16.71 C204.781846,15.6039945 207.612651,15.051 210.72,15.051 C214.196017,15.051 217.22432,15.7224933 219.805,17.0655 C222.38568,18.4085067 224.505492,20.212322 226.1645,22.477 C227.823508,24.741678 229.021663,27.3223188 229.759,30.219 C230.496337,33.1156812 230.759668,36.1439842 230.549,39.304 L201.082,39.304 Z M237.185,16.157 L237.185,57 L248.403,57 L248.403,38.593 C248.403,36.7496575 248.587331,35.0380079 248.956,33.458 C249.324669,31.8779921 249.943496,30.4955059 250.8125,29.3105 C251.681504,28.1254941 252.826993,27.1906701 254.249,26.506 C255.671007,25.8213299 257.40899,25.479 259.463,25.479 C260.14767,25.479 260.858663,25.5184996 261.596,25.5975 C262.333337,25.6765004 262.965331,25.7686661 263.492,25.874 L263.492,15.446 C262.596662,15.1826654 261.780337,15.051 261.043,15.051 C259.620993,15.051 258.251673,15.2616646 256.935,15.683 C255.618327,16.1043354 254.380672,16.6968295 253.222,17.4605 C252.063328,18.2241705 251.036338,19.1458279 250.141,20.2255 C249.245662,21.3051721 248.534669,22.4769937 248.008,23.741 L247.85,23.741 L247.85,16.157 L237.185,16.157 Z M291.063,0.594 L291.063,57 L330.958,57 L330.958,46.572 L303.466,46.572 L303.466,0.594 L291.063,0.594 Z M336.251,28.718 C336.409001,26.0846535 337.067328,23.8990087 338.226,22.161 C339.384672,20.4229913 340.859324,19.0273386 342.65,17.974 C344.440676,16.9206614 346.455155,16.1701689 348.6935,15.7225 C350.931845,15.2748311 353.183322,15.051 355.448,15.051 C357.50201,15.051 359.582323,15.1958319 361.689,15.4855 C363.795677,15.7751681 365.717991,16.3413291 367.456,17.184 C369.194009,18.0266709 370.615994,19.1984925 371.722,20.6995 C372.828006,22.2005075 373.381,24.1886543 373.381,26.664 L373.381,47.915 C373.381,49.7583426 373.486332,51.5226582 373.697,53.208 C373.907668,54.8933418 374.276331,56.1573291 374.803,57 L363.427,57 C363.216332,56.3679968 363.045167,55.7228366 362.9135,55.0645 C362.781833,54.4061634 362.689667,53.7346701 362.637,53.05 C360.846324,54.8933425 358.739679,56.183663 356.317,56.921 C353.894321,57.658337 351.419013,58.027 348.891,58.027 C346.942324,58.027 345.125342,57.7900024 343.44,57.316 C341.754658,56.8419976 340.280006,56.1046717 339.016,55.104 C337.751994,54.1033283 336.764504,52.839341 336.0535,51.312 C335.342496,49.784659 334.987,47.9676772 334.987,45.861 C334.987,43.5436551 335.395163,41.6345075 336.2115,40.1335 C337.027837,38.6324925 338.08116,37.4343378 339.3715,36.539 C340.66184,35.6436622 342.136492,34.9721689 343.7955,34.5245 C345.454508,34.0768311 347.126658,33.7213347 348.812,33.458 C350.497342,33.1946654 352.156325,32.9840008 353.789,32.826 C355.421675,32.6679992 356.869994,32.4310016 358.134,32.115 C359.398006,31.7989984 360.398663,31.3381697 361.136,30.7325 C361.873337,30.1268303 362.215667,29.2446725 362.163,28.086 C362.163,26.8746606 361.965502,25.9135036 361.5705,25.2025 C361.175498,24.4914964 360.648837,23.938502 359.9905,23.5435 C359.332163,23.148498 358.568504,22.8851673 357.6995,22.7535 C356.830496,22.6218327 355.895672,22.556 354.895,22.556 C352.682989,22.556 350.945006,23.0299953 349.681,23.978 C348.416994,24.9260047 347.679668,26.5059889 347.469,28.718 L336.251,28.718 Z M362.163,37.013 C361.688998,37.4343354 361.096504,37.7634988 360.3855,38.0005 C359.674496,38.2375012 358.910837,38.4349992 358.0945,38.593 C357.278163,38.7510008 356.422338,38.8826661 355.527,38.988 C354.631662,39.0933339 353.736338,39.2249992 352.841,39.383 C351.998329,39.5410008 351.168837,39.7516654 350.3525,40.015 C349.536163,40.2783346 348.82517,40.6338311 348.2195,41.0815 C347.61383,41.5291689 347.126669,42.0953299 346.758,42.78 C346.389331,43.4646701 346.205,44.3336614 346.205,45.387 C346.205,46.3876717 346.389331,47.2303299 346.758,47.915 C347.126669,48.5996701 347.626997,49.139498 348.259,49.5345 C348.891003,49.929502 349.628329,50.2059992 350.471,50.364 C351.313671,50.5220008 352.182662,50.601 353.078,50.601 C355.290011,50.601 357.001661,50.232337 358.213,49.495 C359.424339,48.757663 360.319664,47.8755051 360.899,46.8485 C361.478336,45.8214949 361.833833,44.7813386 361.9655,43.728 C362.097167,42.6746614 362.163,41.8320032 362.163,41.2 L362.163,37.013 Z M420.386,57 L420.386,16.157 L409.168,16.157 L409.168,37.566 C409.168,41.7266875 408.48334,44.7154909 407.114,46.5325 C405.74466,48.3495091 403.532682,49.258 400.478,49.258 C397.791987,49.258 395.922339,48.4285083 394.869,46.7695 C393.815661,45.1104917 393.289,42.5956835 393.289,39.225 L393.289,16.157 L382.071,16.157 L382.071,41.279 C382.071,43.8070126 382.294831,46.1111563 382.7425,48.1915 C383.190169,50.2718437 383.966994,52.0361594 385.073,53.4845 C386.179006,54.9328406 387.693157,56.0519961 389.6155,56.842 C391.537843,57.632004 393.999985,58.027 397.002,58.027 C399.372012,58.027 401.689322,57.5003386 403.954,56.447 C406.218678,55.3936614 408.061993,53.6820119 409.484,51.312 L409.721,51.312 L409.721,57 L420.386,57 Z M428.918,16.157 L428.918,57 L440.136,57 L440.136,35.591 C440.136,31.4303125 440.82066,28.4415091 442.19,26.6245 C443.55934,24.8074909 445.771318,23.899 448.826,23.899 C451.512013,23.899 453.381661,24.7284917 454.435,26.3875 C455.488339,28.0465083 456.015,30.5613165 456.015,33.932 L456.015,57 L467.233,57 L467.233,31.878 C467.233,29.3499874 467.009169,27.0458437 466.5615,24.9655 C466.113831,22.8851563 465.337006,21.1208406 464.231,19.6725 C463.124994,18.2241594 461.610843,17.0918374 459.6885,16.2755 C457.766157,15.4591626 455.304015,15.051 452.302,15.051 C449.931988,15.051 447.614678,15.5908279 445.35,16.6705 C443.085322,17.7501721 441.242007,19.4749882 439.82,21.845 L439.583,21.845 L439.583,16.157 L428.918,16.157 Z M503.573,30.535 L514.554,30.535 C514.395999,27.9016535 513.764006,25.6238429 512.658,23.7015 C511.551994,21.7791571 510.116842,20.1728398 508.3525,18.8825 C506.588158,17.5921602 504.586845,16.6310032 502.3485,15.999 C500.110155,15.3669968 497.779679,15.051 495.357,15.051 C492.038983,15.051 489.08968,15.6039945 486.509,16.71 C483.92832,17.8160055 481.742676,19.3564901 479.952,21.3315 C478.161324,23.3065099 476.805171,25.6501531 475.8835,28.3625 C474.961829,31.0748469 474.501,34.0109842 474.501,37.171 C474.501,40.2256819 475.001328,43.0301539 476.002,45.5845 C477.002672,48.1388461 478.398324,50.3376574 480.189,52.181 C481.979676,54.0243426 484.152154,55.4594949 486.7065,56.4865 C489.260846,57.5135051 492.065318,58.027 495.12,58.027 C500.544694,58.027 504.994983,56.6050142 508.471,53.761 C511.947017,50.9169858 514.053663,46.7826938 514.791,41.358 L503.968,41.358 C503.599331,43.8860126 502.690841,45.9004925 501.2425,47.4015 C499.794159,48.9025075 497.727013,49.653 495.041,49.653 C493.302991,49.653 491.828339,49.258004 490.617,48.468 C489.405661,47.6779961 488.444504,46.6641729 487.7335,45.4265 C487.022496,44.1888271 486.509002,42.806341 486.193,41.279 C485.876998,39.751659 485.719,38.250674 485.719,36.776 C485.719,35.248659 485.876998,33.7081744 486.193,32.1545 C486.509002,30.6008256 487.04883,29.1788398 487.8125,27.8885 C488.57617,26.5981602 489.563661,25.5448374 490.775,24.7285 C491.986339,23.9121626 493.487324,23.504 495.278,23.504 C500.070691,23.504 502.835663,25.8476432 503.573,30.535 Z M521.111,0.594 L521.111,57 L532.329,57 L532.329,35.591 C532.329,31.4303125 533.01366,28.4415091 534.383,26.6245 C535.75234,24.8074909 537.964318,23.899 541.019,23.899 C543.705013,23.899 545.574661,24.7284917 546.628,26.3875 C547.681339,28.0465083 548.208,30.5613165 548.208,33.932 L548.208,57 L559.426,57 L559.426,31.878 C559.426,29.3499874 559.202169,27.0458437 558.7545,24.9655 C558.306831,22.8851563 557.530006,21.1208406 556.424,19.6725 C555.317994,18.2241594 553.803843,17.0918374 551.8815,16.2755 C549.959157,15.4591626 547.497015,15.051 544.495,15.051 C542.388323,15.051 540.229011,15.5908279 538.017,16.6705 C535.804989,17.7501721 533.988007,19.4749882 532.566,21.845 L532.329,21.845 L532.329,0.594 L521.111,0.594 Z M605.325,35.196 L619.94,35.196 L612.83,14.498 L612.672,14.498 L605.325,35.196 Z M606.51,0.594 L619.229,0.594 L640.322,57 L627.445,57 L623.179,44.439 L602.086,44.439 L597.662,57 L585.18,57 L606.51,0.594 Z M644.035,16.157 L644.035,57 L655.253,57 L655.253,35.591 C655.253,31.4303125 655.93766,28.4415091 657.307,26.6245 C658.67634,24.8074909 660.888318,23.899 663.943,23.899 C666.629013,23.899 668.498661,24.7284917 669.552,26.3875 C670.605339,28.0465083 671.132,30.5613165 671.132,33.932 L671.132,57 L682.35,57 L682.35,31.878 C682.35,29.3499874 682.126169,27.0458437 681.6785,24.9655 C681.230831,22.8851563 680.454006,21.1208406 679.348,19.6725 C678.241994,18.2241594 676.727843,17.0918374 674.8055,16.2755 C672.883157,15.4591626 670.421015,15.051 667.419,15.051 C665.048988,15.051 662.731678,15.5908279 660.467,16.6705 C658.202322,17.7501721 656.359007,19.4749882 654.937,21.845 L654.7,21.845 L654.7,16.157 L644.035,16.157 Z M702.416,9.837 L702.416,0.594 L691.198,0.594 L691.198,9.837 L702.416,9.837 Z M691.198,16.157 L691.198,57 L702.416,57 L702.416,16.157 L691.198,16.157 Z M711.58,16.157 L711.58,57 L722.798,57 L722.798,33.3 C722.798,31.2986567 723.087664,29.6791729 723.667,28.4415 C724.246336,27.2038271 724.944163,26.2558366 725.7605,25.5975 C726.576837,24.9391634 727.419496,24.4915012 728.2885,24.2545 C729.157504,24.0174988 729.855331,23.899 730.382,23.899 C732.172676,23.899 733.528829,24.2018303 734.4505,24.8075 C735.372171,25.4131697 736.030498,26.2163283 736.4255,27.217 C736.820502,28.2176717 737.044333,29.3104941 737.097,30.4955 C737.149667,31.6805059 737.176,32.8786606 737.176,34.09 L737.176,57 L748.394,57 L748.394,34.248 C748.394,32.9839937 748.486166,31.7331729 748.6705,30.4955 C748.854834,29.2578271 749.223497,28.1518382 749.7765,27.1775 C750.329503,26.2031618 751.093162,25.4131697 752.0675,24.8075 C753.041838,24.2018303 754.318992,23.899 755.899,23.899 C757.479008,23.899 758.729829,24.1623307 759.6515,24.689 C760.573171,25.2156693 761.270998,25.9266622 761.745,26.822 C762.219002,27.7173378 762.508666,28.7706606 762.614,29.982 C762.719334,31.1933394 762.772,32.4836598 762.772,33.853 L762.772,57 L773.99,57 L773.99,29.666 C773.99,27.0326535 773.621337,24.781176 772.884,22.9115 C772.146663,21.041824 771.119673,19.5276725 769.803,18.369 C768.486327,17.2103275 766.906343,16.3676693 765.063,15.841 C763.219657,15.3143307 761.218344,15.051 759.059,15.051 C756.214986,15.051 753.752844,15.7356598 751.6725,17.105 C749.592156,18.4743402 747.946339,20.0543244 746.735,21.845 C745.628994,19.3169874 744.009511,17.5526717 741.8765,16.552 C739.743489,15.5513283 737.38668,15.051 734.806,15.051 C732.119987,15.051 729.736844,15.6303275 727.6565,16.789 C725.576156,17.9476725 723.798674,19.5803228 722.324,21.687 L722.166,21.687 L722.166,16.157 L711.58,16.157 Z M782.364,28.718 C782.522001,26.0846535 783.180328,23.8990087 784.339,22.161 C785.497672,20.4229913 786.972324,19.0273386 788.763,17.974 C790.553676,16.9206614 792.568155,16.1701689 794.8065,15.7225 C797.044845,15.2748311 799.296322,15.051 801.561,15.051 C803.61501,15.051 805.695323,15.1958319 807.802,15.4855 C809.908677,15.7751681 811.830991,16.3413291 813.569,17.184 C815.307009,18.0266709 816.728994,19.1984925 817.835,20.6995 C818.941006,22.2005075 819.494,24.1886543 819.494,26.664 L819.494,47.915 C819.494,49.7583426 819.599332,51.5226582 819.81,53.208 C820.020668,54.8933418 820.389331,56.1573291 820.916,57 L809.54,57 C809.329332,56.3679968 809.158167,55.7228366 809.0265,55.0645 C808.894833,54.4061634 808.802667,53.7346701 808.75,53.05 C806.959324,54.8933425 804.852679,56.183663 802.43,56.921 C800.007321,57.658337 797.532013,58.027 795.004,58.027 C793.055324,58.027 791.238342,57.7900024 789.553,57.316 C787.867658,56.8419976 786.393006,56.1046717 785.129,55.104 C783.864994,54.1033283 782.877504,52.839341 782.1665,51.312 C781.455496,49.784659 781.1,47.9676772 781.1,45.861 C781.1,43.5436551 781.508163,41.6345075 782.3245,40.1335 C783.140837,38.6324925 784.19416,37.4343378 785.4845,36.539 C786.77484,35.6436622 788.249492,34.9721689 789.9085,34.5245 C791.567508,34.0768311 793.239658,33.7213347 794.925,33.458 C796.610342,33.1946654 798.269325,32.9840008 799.902,32.826 C801.534675,32.6679992 802.982994,32.4310016 804.247,32.115 C805.511006,31.7989984 806.511663,31.3381697 807.249,30.7325 C807.986337,30.1268303 808.328667,29.2446725 808.276,28.086 C808.276,26.8746606 808.078502,25.9135036 807.6835,25.2025 C807.288498,24.4914964 806.761837,23.938502 806.1035,23.5435 C805.445163,23.148498 804.681504,22.8851673 803.8125,22.7535 C802.943496,22.6218327 802.008672,22.556 801.008,22.556 C798.795989,22.556 797.058006,23.0299953 795.794,23.978 C794.529994,24.9260047 793.792668,26.5059889 793.582,28.718 L782.364,28.718 Z M808.276,37.013 C807.801998,37.4343354 807.209504,37.7634988 806.4985,38.0005 C805.787496,38.2375012 805.023837,38.4349992 804.2075,38.593 C803.391163,38.7510008 802.535338,38.8826661 801.64,38.988 C800.744662,39.0933339 799.849338,39.2249992 798.954,39.383 C798.111329,39.5410008 797.281837,39.7516654 796.4655,40.015 C795.649163,40.2783346 794.93817,40.6338311 794.3325,41.0815 C793.72683,41.5291689 793.239669,42.0953299 792.871,42.78 C792.502331,43.4646701 792.318,44.3336614 792.318,45.387 C792.318,46.3876717 792.502331,47.2303299 792.871,47.915 C793.239669,48.5996701 793.739997,49.139498 794.372,49.5345 C795.004003,49.929502 795.741329,50.2059992 796.584,50.364 C797.426671,50.5220008 798.295662,50.601 799.191,50.601 C801.403011,50.601 803.114661,50.232337 804.326,49.495 C805.537339,48.757663 806.432664,47.8755051 807.012,46.8485 C807.591336,45.8214949 807.946833,44.7813386 808.0785,43.728 C808.210167,42.6746614 808.276,41.8320032 808.276,41.2 L808.276,37.013 Z M842.404,16.157 L842.404,3.912 L831.186,3.912 L831.186,16.157 L824.392,16.157 L824.392,23.662 L831.186,23.662 L831.186,47.757 C831.186,49.8110103 831.52833,51.4699937 832.213,52.734 C832.89767,53.9980063 833.832494,54.9723299 835.0175,55.657 C836.202506,56.3416701 837.571826,56.8024988 839.1255,57.0395 C840.679174,57.2765012 842.324991,57.395 844.063,57.395 C845.169006,57.395 846.301328,57.3686669 847.46,57.316 C848.618672,57.2633331 849.671995,57.1580008 850.62,57 L850.62,48.31 C850.093331,48.4153339 849.540336,48.4943331 848.961,48.547 C848.381664,48.5996669 847.776003,48.626 847.144,48.626 C845.247991,48.626 843.984003,48.3100032 843.352,47.678 C842.719997,47.0459968 842.404,45.7820095 842.404,43.886 L842.404,23.662 L850.62,23.662 L850.62,16.157 L842.404,16.157 Z M867.526,9.837 L867.526,0.594 L856.308,0.594 L856.308,9.837 L867.526,9.837 Z M856.308,16.157 L856.308,57 L867.526,57 L867.526,16.157 L856.308,16.157 Z M886.328,36.618 C886.328,38.2506748 886.485998,39.8438256 886.802,41.3975 C887.118002,42.9511744 887.65783,44.3468271 888.4215,45.5845 C889.18517,46.8221729 890.198994,47.809663 891.463,48.547 C892.727006,49.284337 894.306991,49.653 896.203,49.653 C898.099009,49.653 899.69216,49.284337 900.9825,48.547 C902.27284,47.809663 903.29983,46.8221729 904.0635,45.5845 C904.82717,44.3468271 905.366998,42.9511744 905.683,41.3975 C905.999002,39.8438256 906.157,38.2506748 906.157,36.618 C906.157,34.9853252 905.999002,33.3790079 905.683,31.799 C905.366998,30.2189921 904.82717,28.8233394 904.0635,27.612 C903.29983,26.4006606 902.27284,25.4131705 900.9825,24.6495 C899.69216,23.8858295 898.099009,23.504 896.203,23.504 C894.306991,23.504 892.727006,23.8858295 891.463,24.6495 C890.198994,25.4131705 889.18517,26.4006606 888.4215,27.612 C887.65783,28.8233394 887.118002,30.2189921 886.802,31.799 C886.485998,33.3790079 886.328,34.9853252 886.328,36.618 Z M875.11,36.618 C875.11,33.3526503 875.610328,30.39018 876.611,27.7305 C877.611672,25.07082 879.033657,22.806176 880.877,20.9365 C882.720343,19.066824 884.93232,17.6185051 887.513,16.5915 C890.09368,15.5644949 892.990317,15.051 896.203,15.051 C899.415683,15.051 902.325487,15.5644949 904.9325,16.5915 C907.539513,17.6185051 909.764657,19.066824 911.608,20.9365 C913.451343,22.806176 914.873328,25.07082 915.874,27.7305 C916.874672,30.39018 917.375,33.3526503 917.375,36.618 C917.375,39.8833497 916.874672,42.8326535 915.874,45.466 C914.873328,48.0993465 913.451343,50.350824 911.608,52.2205 C909.764657,54.090176 907.539513,55.5253283 904.9325,56.526 C902.325487,57.5266717 899.415683,58.027 896.203,58.027 C892.990317,58.027 890.09368,57.5266717 887.513,56.526 C884.93232,55.5253283 882.720343,54.090176 880.877,52.2205 C879.033657,50.350824 877.611672,48.0993465 876.611,45.466 C875.610328,42.8326535 875.11,39.8833497 875.11,36.618 Z M924.643,16.157 L924.643,57 L935.861,57 L935.861,35.591 C935.861,31.4303125 936.54566,28.4415091 937.915,26.6245 C939.28434,24.8074909 941.496318,23.899 944.551,23.899 C947.237013,23.899 949.106661,24.7284917 950.16,26.3875 C951.213339,28.0465083 951.74,30.5613165 951.74,33.932 L951.74,57 L962.958,57 L962.958,31.878 C962.958,29.3499874 962.734169,27.0458437 962.2865,24.9655 C961.838831,22.8851563 961.062006,21.1208406 959.956,19.6725 C958.849994,18.2241594 957.335843,17.0918374 955.4135,16.2755 C953.491157,15.4591626 951.029015,15.051 948.027,15.051 C945.656988,15.051 943.339678,15.5908279 941.075,16.6705 C938.810322,17.7501721 936.967007,19.4749882 935.545,21.845 L935.308,21.845 L935.308,16.157 L924.643,16.157 Z" id="Twitter-Launch-Anima" fill="#1DA1F2"></path>
                </g>
            </g>
            <path d="M186.435933,210 C242.156926,210 272.627942,163.836931 272.627942,123.807991 C272.627942,122.496235 272.601364,121.190385 272.541122,119.891622 C278.455541,115.616159 283.597437,110.281133 287.653781,104.206656 C282.225438,106.617547 276.384254,108.24292 270.256622,108.975283 C276.511236,105.226058 281.312937,99.2915572 283.577356,92.2183504 C277.723179,95.6882143 271.242359,98.2119127 264.342202,99.5709181 C258.814635,93.6830759 250.941736,90 242.230163,90 C225.499217,90 211.932197,103.56702 211.932197,120.291469 C211.932197,122.669285 212.198565,124.980362 212.717716,127.198712 C187.541565,125.933024 165.216313,113.877979 150.276703,95.5482385 C147.672681,100.02392 146.174291,105.226058 146.174291,110.773706 C146.174291,121.284293 151.52231,130.562266 159.65449,135.990019 C154.686236,135.837049 150.017423,134.471547 145.934501,132.200041 C145.927413,132.326433 145.927413,132.453415 145.927413,132.586304 C145.927413,147.259546 156.371261,159.507722 170.231226,162.285385 C167.687446,162.977586 165.009597,163.350855 162.245519,163.350855 C160.294126,163.350855 158.395889,163.157724 156.550808,162.804536 C160.407524,174.840091 171.590231,183.598323 184.850722,183.8452 C174.480702,191.970292 161.419839,196.812155 147.226767,196.812155 C144.782211,196.812155 142.37132,196.67277 140,196.392818 C153.407554,204.984496 169.325813,210 186.435933,210" id="Fill-3" fill="#1DA1F2"></path>
        </g>
    </g>
</svg>